<svg xmlns="http://www.w3.org/2000/svg" width="1200" height="630" viewBox="0 0 1200 630"><rect width="1200" height="630" fill="#f4f2e9"/><path d="M64 95h1072" stroke="#d4d6c8"/><g font-family="Arial,Helvetica,sans-serif"><text x="64" y="61" font-size="24" font-weight="bold" fill="#292d27">LVTD / GAMES</text><text x="64" y="230" font-size="84" font-weight="bold" letter-spacing="-4" fill="#292d27">Corporate</text><text x="64" y="321" font-size="84" font-weight="bold" letter-spacing="-4" fill="#38533a">BS Meter.</text><text x="68" y="386" font-size="29" fill="#686c61">Say less. Mean even less.</text><rect x="68" y="444" width="395" height="66" rx="8" fill="#38533a"/><text x="94" y="486" font-size="24" font-weight="bold" fill="#faf9f3">Can you out-BS the boardroom?</text><text x="68" y="582" font-size="19" fill="#686c61">games.lvtd.dev/corporate-bs-meter</text><rect x="663" y="170" width="472" height="330" rx="16" fill="#faf9f3" stroke="#bfc5b3"/><text x="691" y="205" font-size="13" letter-spacing="2" fill="#686c61">CORPORATE NONSENSE DETECTOR</text><path d="M714 415a185 185 0 0 1 370 0" fill="none" stroke="#d7dccb" stroke-width="29"/><path d="M714 415a185 185 0 0 1 311-135" fill="none" stroke="#38533a" stroke-width="29"/><path d="m892 405 142-95-125 114Z" fill="#ae572b"/><circle cx="899" cy="415" r="12" fill="#ae572b"/><text x="711" y="467" font-size="12" fill="#686c61">PLAIN ENGLISH</text><text x="1019" y="467" font-size="12" fill="#686c61">PURE BS</text></g></svg>
